<svg enable-background="new 0 0 32 32" viewBox="0 0 32 32" xmlns="http://www.w3.org/2000/svg"><path d="m31 2.64h-13c-.199 0-.36.161-.36.36v8c0 .199.161.36.36.36h13c.199 0 .36-.161.36-.36v-8c0-.199-.161-.36-.36-.36zm-.36 1.957c-.615-.139-1.098-.623-1.237-1.237h1.237zm-1.964 6.043h-8.352c-.157-1.012-.952-1.807-1.964-1.964v-3.353c1.012-.157 1.807-.952 1.964-1.964h8.352c.157 1.012.952 1.807 1.964 1.964v3.353c-1.012.157-1.807.953-1.964 1.964zm-9.079-7.28c-.139.615-.622 1.099-1.237 1.237v-1.237zm-1.237 6.043c.615.139 1.098.623 1.237 1.237h-1.237zm11.043 1.237c.139-.615.622-1.099 1.237-1.237v1.237zm-11.403 2h13v.72h-13zm0 2h13v.72h-13zm6.497-10c-1.302 0-2.36 1.059-2.36 2.36s1.059 2.36 2.36 2.36 2.36-1.059 2.36-2.36-1.058-2.36-2.36-2.36zm0 4c-.904 0-1.64-.736-1.64-1.64s.735-1.64 1.64-1.64 1.64.736 1.64 1.64-.736 1.64-1.64 1.64zm-17.137 8.36h-.72v-7.991c0-1.306 1.059-2.369 2.36-2.369h5.131l-2.385-2.386.509-.509 3.254 3.255-3.248 3.256-.51-.509 2.381-2.387h-5.132c-.904 0-1.64.74-1.64 1.649zm17.28 2h.721v4c0 1.302-1.059 2.36-2.36 2.36h-7.13l2.385 2.385-.51.51-3.255-3.255 3.254-3.255.51.51-2.385 2.385h7.13c.904 0 1.64-.735 1.64-1.64zm-11.28 12h-.72c0-2.539-1.721-4.774-4.186-5.435-.143-.038-.248-.159-.264-.307-.017-.146.057-.288.188-.358.959-.515 1.556-1.508 1.556-2.594 0-1.625-1.319-2.946-2.94-2.946s-2.94 1.321-2.94 2.946c0 1.086.596 2.08 1.556 2.594.13.069.205.212.188.358-.017.147-.122.269-.264.307-2.458.659-4.174 2.893-4.174 5.435h-.72c0-2.615 1.61-4.942 3.996-5.895-.817-.688-1.303-1.706-1.303-2.799 0-2.021 1.642-3.667 3.66-3.667s3.66 1.646 3.66 3.667c0 1.093-.485 2.111-1.302 2.799 2.394.954 4.009 3.282 4.009 5.895z"/><path d="m0 0h32v32h-32z" fill="none"/></svg>